ffmpeg version 3.4.8-0ubuntu0.2 Copyright (c) 2000-2020 the FFmpeg developers
  built with gcc 7 (Ubuntu 7.5.0-3ubuntu1~18.04)
  configuration: --prefix=/usr --extra-version=0ubuntu0.2 --toolchain=hardened --libdir=/usr/lib/x86_64-linux-gnu --incdir=/usr/include/x86_64-linux-gnu --enable-gpl --disable-stripping --enable-avresample --enable-avisynth --enable-gnutls --enable-ladspa --enable-libass --enable-libbluray --enable-libbs2b --enable-libcaca --enable-libcdio --enable-libflite --enable-libfontconfig --enable-libfreetype --enable-libfribidi --enable-libgme --enable-libgsm --enable-libmp3lame --enable-libmysofa --enable-libopenjpeg --enable-libopenmpt --enable-libopus --enable-libpulse --enable-librubberband --enable-librsvg --enable-libshine --enable-libsnappy --enable-libsoxr --enable-libspeex --enable-libssh --enable-libtheora --enable-libtwolame --enable-libvorbis --enable-libvpx --enable-libwavpack --enable-libwebp --enable-libx265 --enable-libxml2 --enable-libxvid --enable-libzmq --enable-libzvbi --enable-omx --enable-openal --enable-opengl --enable-sdl2 --enable-libdc1394 --enable-libdrm --enable-libiec61883 --enable-chromaprint --enable-frei0r --enable-libopencv --enable-libx264 --enable-shared
  libavutil      55. 78.100 / 55. 78.100
  libavcodec     57.107.100 / 57.107.100
  libavformat    57. 83.100 / 57. 83.100
  libavdevice    57. 10.100 / 57. 10.100
  libavfilter     6.107.100 /  6.107.100
  libavresample   3.  7.  0 /  3.  7.  0
  libswscale      4.  8.100 /  4.  8.100
  libswresample   2.  9.100 /  2.  9.100
  libpostproc    54.  7.100 / 54.  7.100
[rawvideo @ 0x55b50bccba20] Estimating duration from bitrate, this may be inaccurate
Input #0, rawvideo, from '../../SVC-Encoder-20220109T061506Z-001/SVC-Encoder/Dataset/RollerCoaster/ERP_8x8/tile_yuv/Tile_34_480x240.yuv':
  Duration: 00:00:10.00, start: 0.000000, bitrate: 41472 kb/s
    Stream #0:0: Video: rawvideo (I420 / 0x30323449), yuv420p, 480x240, 41472 kb/s, 30 tbr, 30 tbn, 30 tbc
Stream mapping:
  Stream #0:0 -> #0:0 (rawvideo (native) -> h264 (libx264))
Press [q] to stop, [?] for help
[libx264 @ 0x55b50bcd8c60] using cpu capabilities: MMX2 SSE2Fast LZCNT SSSE3 SSE4.2 AVX
[libx264 @ 0x55b50bcd8c60] profile High, level 2.1
Output #0, rawvideo, to 'RollerCoaster_Tile_34_480x240_x264_QP_20.h264':
  Metadata:
    encoder         : Lavf57.83.100
    Stream #0:0: Video: h264 (libx264), yuv420p, 480x240, q=-1--1, 30 fps, 30 tbn, 30 tbc
    Metadata:
      encoder         : Lavc57.107.100 libx264
    Side data:
      cpb: bitrate max/min/avg: 0/0/0 buffer size: 0 vbv_delay: -1
frame=  137 fps=0.0 q=26.0 PSNR=Y:nan U:nan V:nan *:nan size=     191kB time=00:00:03.13 bitrate= 499.7kbits/s speed=6.26x    frame=  259 fps=259 q=26.0 PSNR=Y:nan U:nan V:nan *:nan size=     256kB time=00:00:07.20 bitrate= 291.3kbits/s speed= 7.2x    frame=  300 fps=229 q=26.0 LPSNR=Y:inf U:inf V:inf *:inf size=     593kB time=00:00:09.93 bitrate= 488.7kbits/s speed=7.59x    
video:593kB audio:0kB subtitle:0kB other streams:0kB global headers:0kB muxing overhead: 0.000000%
[libx264 @ 0x55b50bcd8c60] frame I:2     Avg QP:18.30  size: 19788  PSNR Mean Y:48.24 U:51.77 V:53.34 Avg:49.25 Global:49.22
[libx264 @ 0x55b50bcd8c60] frame P:76    Avg QP:19.65  size:  5725  PSNR Mean Y:44.97 U:50.90 V:52.27 Avg:46.28 Global:46.19
[libx264 @ 0x55b50bcd8c60] frame B:222   Avg QP:25.44  size:   595  PSNR Mean Y:43.53 U:50.54 V:51.97 Avg:44.93 Global:44.87
[libx264 @ 0x55b50bcd8c60] consecutive B-frames:  1.3%  0.0%  0.0% 98.7%
[libx264 @ 0x55b50bcd8c60] mb I  I16..4: 23.2% 54.8% 22.0%
[libx264 @ 0x55b50bcd8c60] mb P  I16..4:  1.4%  0.4%  0.0%  P16..4: 33.5% 24.9% 16.2%  0.0%  0.0%    skip:23.6%
[libx264 @ 0x55b50bcd8c60] mb B  I16..4:  0.0%  0.0%  0.0%  B16..8: 41.6%  7.4%  1.0%  direct: 0.6%  skip:49.4%  L0:41.4% L1:43.6% BI:15.0%
[libx264 @ 0x55b50bcd8c60] 8x8 transform intra:42.3% inter:66.0%
[libx264 @ 0x55b50bcd8c60] coded y,uvDC,uvAC intra: 44.4% 56.4% 28.3% inter: 15.7% 11.0% 0.1%
[libx264 @ 0x55b50bcd8c60] i16 v,h,dc,p:  4% 50% 25% 21%
[libx264 @ 0x55b50bcd8c60] i8 v,h,dc,ddl,ddr,vr,hd,vl,hu:  5% 24% 21%  3%  9%  4% 15%  7% 12%
[libx264 @ 0x55b50bcd8c60] i4 v,h,dc,ddl,ddr,vr,hd,vl,hu:  8% 18% 10%  4% 15%  6% 18% 10% 11%
[libx264 @ 0x55b50bcd8c60] i8c dc,h,v,p: 52% 24% 16%  9%
[libx264 @ 0x55b50bcd8c60] Weighted P-Frames: Y:1.3% UV:0.0%
[libx264 @ 0x55b50bcd8c60] ref P L0: 60.0% 20.5% 16.0%  3.5%  0.0%
[libx264 @ 0x55b50bcd8c60] ref B L0: 88.2% 10.9%  0.9%
[libx264 @ 0x55b50bcd8c60] ref B L1: 91.5%  8.5%
[libx264 @ 0x55b50bcd8c60] PSNR Mean Y:43.929 U:50.636 V:52.052 Avg:45.302 Global:45.191 kb/s:485.41
